<svg xmlns="http://www.w3.org/2000/svg" xmlns:xlink="http://www.w3.org/1999/xlink" width="51.079mm" height="51.079mm" viewBox="3945.4 2977.4 201.1 201.1"><title></title><style type="text/css">
*[layerid="1"] {stroke:#FF0000;fill:#FF0000;}
*[layerid="2"] {stroke:#0000FF;fill:#0000FF;}
*[layerid="3"] {stroke:#FFCC00;fill:#FFCC00;}
*[layerid="4"] {stroke:#66CC33;fill:#66CC33;}
*[layerid="5"] {stroke:#808080;fill:#808080;}
*[layerid="6"] {stroke:#800000;fill:#800000;}
*[layerid="7"] {stroke:#800080;fill:#800080;stroke-opacity:0.7;fill-opacity:0.7;}
*[layerid="8"] {stroke:#AA00FF;fill:#AA00FF;stroke-opacity:0.7;fill-opacity:0.7;}
*[layerid="9"] {stroke:#6464FF;fill:#6464FF;}
*[layerid="10"] {stroke:#FF00FF;fill:#FF00FF;}
*[layerid="11"] {stroke:#C0C0C0;fill:#C0C0C0;}
*[layerid="12"] {stroke:#FFFFFF;fill:#FFFFFF;}
*[layerid="13"] {stroke:#33CC99;fill:#33CC99;}
*[layerid="14"] {stroke:#5555FF;fill:#5555FF;}
*[layerid="15"] {stroke:#F022F0;fill:#F022F0;}
*[layerid="19"] {stroke:#66CCFF;fill:#66CCFF;}
*[layerid="21"] {stroke:#999966;fill:#999966;}
*[layerid="22"] {stroke:#008000;fill:#008000;}
*[layerid="23"] {stroke:#00FF00;fill:#00FF00;}
*[layerid="24"] {stroke:#BC8E00;fill:#BC8E00;}
*[layerid="25"] {stroke:#70DBFA;fill:#70DBFA;}
*[layerid="26"] {stroke:#00CC66;fill:#00CC66;}
*[layerid="27"] {stroke:#9966FF;fill:#9966FF;}
*[layerid="28"] {stroke:#800080;fill:#800080;}
*[layerid="29"] {stroke:#008080;fill:#008080;}
*[layerid="30"] {stroke:#15935F;fill:#15935F;}
*[layerid="31"] {stroke:#000080;fill:#000080;}
*[layerid="32"] {stroke:#00B400;fill:#00B400;}
*[layerid="33"] {stroke:#2E4756;fill:#2E4756;}
*[layerid="34"] {stroke:#99842F;fill:#99842F;}
*[layerid="35"] {stroke:#FFFFAA;fill:#FFFFAA;}
*[layerid="36"] {stroke:#99842F;fill:#99842F;}
*[layerid="37"] {stroke:#2E4756;fill:#2E4756;}
*[layerid="38"] {stroke:#3535FF;fill:#3535FF;}
*[layerid="39"] {stroke:#8000BC;fill:#8000BC;}
*[layerid="40"] {stroke:#43AE5F;fill:#43AE5F;}
*[layerid="41"] {stroke:#C3ECCE;fill:#C3ECCE;}
*[layerid="42"] {stroke:#728978;fill:#728978;}
*[layerid="43"] {stroke:#39503F;fill:#39503F;}
*[layerid="44"] {stroke:#0C715D;fill:#0C715D;}
*[layerid="45"] {stroke:#5A8A80;fill:#5A8A80;}
*[layerid="46"] {stroke:#2B937E;fill:#2B937E;}
*[layerid="47"] {stroke:#23999D;fill:#23999D;}
*[layerid="48"] {stroke:#45B4E3;fill:#45B4E3;}
*[layerid="49"] {stroke:#215DA1;fill:#215DA1;}
*[layerid="50"] {stroke:#4564D7;fill:#4564D7;}
*[layerid="51"] {stroke:#6969E9;fill:#6969E9;}
*[layerid="52"] {stroke:#9069E9;fill:#9069E9;}
*[layerid="99"] {stroke:#00CCCC;fill:#00CCCC;stroke-opacity:0.6;fill-opacity:0.6;}
*[layerid="100"] {stroke:#CC9999;fill:#CC9999;}
*[layerid="101"] {stroke:#66FFCC;fill:#66FFCC;}
*[layerid="Hole"] {stroke:#222222;fill:#222222;}
*[layerid="DRCError"] {stroke:#FAD609;fill:#FAD609;}
*[fill="none"] {fill: none;}
*[stroke="none"] {stroke: none;}
path, polyline, polygon, line {stroke-linecap:round;}
g[c_partid="part_pad"][layerid="1"] ellipse:not([c_etype="pad_outer"]) {fill:#FF0000;}
g[c_partid="part_pad"][layerid="1"] polygon:not([c_etype="pad_outer"]) {fill:#FF0000;}
g[c_partid="part_pad"][layerid="1"] polyline:not([c_etype="pad_outer"]) {stroke:#FF0000;}
g[c_partid="part_pad"][layerid="2"] ellipse:not([c_etype="pad_outer"]) {fill:#0000FF;}
g[c_partid="part_pad"][layerid="2"] polygon:not([c_etype="pad_outer"]) {fill:#0000FF;}
g[c_partid="part_pad"][layerid="2"] polyline:not([c_etype="pad_outer"]) {stroke:#0000FF;}
g[c_partid="part_pad"][layerid="11"] ellipse:not([c_etype="pad_outer"]) {fill:#C0C0C0;}
g[c_partid="part_pad"][layerid="11"] polygon:not([c_etype="pad_outer"]) {fill:#C0C0C0;}
g[c_partid="part_pad"][layerid="11"] polyline:not([c_etype="pad_outer"]) {stroke:#C0C0C0;}
g[c_partid="part_pad"][layerid="11"] circle {fill:#222222;}
g[c_partid="part_pad"][layerid="11"] > polyline:nth-of-type(2) {stroke:#222222;}
g[c_partid="part_pad"][layerid="11"][c_shape="ELLIPSE"]  polyline:nth-last-of-type(1) {stroke:#222222;}
g[c_partid="part_pad"][layerid="11"][c_shape="RECT"]  polyline:nth-last-of-type(1) {stroke:#222222;}
g[c_partid="part_pad"][layerid="11"][c_shape="POLYGON"]  polyline:nth-last-of-type(1) {stroke:#222222;}
g[c_partid="part_via"] > * + circle, #gCurParts g[c_partid="part_via"] > * + circle {fill:#222222;}
g[c_partid="part_pad"] > polygon[c_etype="pad_outer"], #gCurParts g[c_partid="part_pad"] > polygon[c_etype="pad_outer"] {stroke-linejoin: round;stroke-miterlimit: 100;}
g[c_partid="part_hole"] > circle {fill: #222222;}path, polyline, polygon {stroke-linejoin:round;}
rect, circle, ellipse, polyline, line, polygon, path {shape-rendering:crispEdges;}
</style>
<rect x="3945.4" y="2977.4" width="201.1" height="201.1" fill="#000000" stroke="none"/><polyline points="4017 3087.473 4002.569 3087.473 3983.374 3106.668 3983.374 3118.5" stroke-width="1"  stroke-linecap="round" fill="none" layerid="2" net="+5V" id="gge5411" locked="0" /><polyline points="4017 3078.5 4017 3087.473" stroke-width="1"  stroke-linecap="round" fill="none" layerid="2" net="+5V" id="gge5408" locked="0" /><polyline points="4017.626 3118.5 4028.968 3129.842 4093.65 3129.842 4099 3124.492" stroke-width="1"  stroke-linecap="round" fill="none" layerid="1" net="U1_14" id="gge5429" locked="0" /><polyline points="4079 3061.5 4036.036 3018.536 4031.25 3018.536" stroke-width="1"  stroke-linecap="round" fill="none" layerid="1" net="BUTTON" id="gge5426" locked="0" /><polyline points="4031.25 3013.5 4031.25 3018.536" stroke-width="1"  stroke-linecap="round" fill="none" layerid="1" net="BUTTON" id="gge5423" locked="0" /><polyline points="4017 3069.527 4026.927 3059.6 4026.927 3008.748 4027.218 3008.457 4046.287 3008.457 4051.83 3014" stroke-width="1"  stroke-linecap="round" fill="none" layerid="1" net="+5V" id="gge5420" locked="0" /><polyline points="4017 3078.5 4017 3069.527" stroke-width="1"  stroke-linecap="round" fill="none" layerid="1" net="+5V" id="gge5417" locked="0" /><polyline points="4056 3014 4051.83 3014" stroke-width="1"  stroke-linecap="round" fill="none" layerid="1" net="+5V" id="gge5414" locked="0" /><polyline points="3993.378 3078.5 3993.378 3038.702 4018.58 3013.5" stroke-width="1"  stroke-linecap="round" fill="none" layerid="1" net="GND" id="gge5405" locked="0" /><polyline points="4022.75 3013.5 4019.809 3013.5" stroke-width="1"  stroke-linecap="round" fill="none" layerid="1" net="GND" id="gge5402" locked="0" /><polyline points="4019.809 3013.5 4018.58 3013.5" stroke-width="1"  stroke-linecap="round" fill="none" layerid="1" net="GND" id="gge5399" locked="0" /><polyline points="4019.809 3013.5 4026.838 3006.471 4061.757 3006.471 4064.25 3008.964" stroke-width="1"  stroke-linecap="round" fill="none" layerid="1" net="GND" id="gge5396" locked="0" /><polyline points="4064.25 3014 4064.25 3008.964" stroke-width="1"  stroke-linecap="round" fill="none" layerid="1" net="GND" id="gge5393" locked="0" /><polyline points="4089 3124.492 4055.161 3090.653 3996.558 3090.653 3993.378 3087.473" stroke-width="1"  stroke-linecap="round" fill="none" layerid="1" net="GND" id="gge5390" locked="0" /><polyline points="3993.378 3078.5 3993.378 3087.473" stroke-width="1"  stroke-linecap="round" fill="none" layerid="1" net="GND" id="gge5387" locked="0" /><polyline points="4089 3061.5 4089 3026.33 4076.67 3014" stroke-width="1"  stroke-linecap="round" fill="none" layerid="1" net="DIN" id="gge5384" locked="0" /><polyline points="4072.5 3014 4076.67 3014" stroke-width="1"  stroke-linecap="round" fill="none" layerid="1" net="DIN" id="gge5381" locked="0" /><g c_partid="part_pad" c_etype="pinpart" c_origin="4072.5,3014" layerid="1" number="4" net="DIN" plated ="Y"  id="gge4508" locked="0" c_rotation="270" c_width="7.874" c_height="6.1417" title="DIN" c_shape="RECT" pasteexpansion="0" solderexpansion="0.2"><polygon  c_etype="pad_shell" points="4075.5709 3010.063 4075.5709 3017.937 4069.4292 3017.937 4069.4292 3010.063" layerid="1" stroke-width="0" /><circle c_etype="pad_hole" cx="4072.5" cy="3014" r="0" layerid="1" stroke-width="0"/></g><g c_partid="part_pad" c_etype="pinpart" c_origin="4064.25,3014" layerid="1" number="4" net="GND" plated ="Y"  id="gge4577" locked="0" c_rotation="270" c_width="7.874" c_height="6.1417" title="GND" c_shape="RECT" pasteexpansion="0" solderexpansion="0.2"><polygon  c_etype="pad_shell" points="4067.3209 3010.063 4067.3209 3017.937 4061.1792 3017.937 4061.1792 3010.063" layerid="1" stroke-width="0" /><circle c_etype="pad_hole" cx="4064.25" cy="3014" r="0" layerid="1" stroke-width="0"/></g><g c_partid="part_pad" c_etype="pinpart" c_origin="4056,3014" layerid="1" number="4" net="+5V" plated ="Y"  id="gge4601" locked="0" c_rotation="270" c_width="7.874" c_height="6.1417" title="+5V" c_shape="RECT" pasteexpansion="0" solderexpansion="0.2"><polygon  c_etype="pad_shell" points="4059.0709 3010.063 4059.0709 3017.937 4052.9292 3017.937 4052.9292 3010.063" layerid="1" stroke-width="0" /><circle c_etype="pad_hole" cx="4056" cy="3014" r="0" layerid="1" stroke-width="0"/></g><g c_partid="part_pad" c_etype="pinpart" c_origin="4031.25,3013.5" layerid="1" number="4" net="BUTTON" plated ="Y"  id="gge4742" locked="0" c_rotation="270" c_width="7.874" c_height="6.1417" title="BUTTON" c_shape="RECT" pasteexpansion="0" solderexpansion="0.2"><polygon  c_etype="pad_shell" points="4034.3209 3009.563 4034.3209 3017.437 4028.1792 3017.437 4028.1792 3009.563" layerid="1" stroke-width="0" /><circle c_etype="pad_hole" cx="4031.25" cy="3013.5" r="0" layerid="1" stroke-width="0"/></g><g c_partid="part_pad" c_etype="pinpart" c_origin="4022.75,3013.5" layerid="1" number="4" net="GND" plated ="Y"  id="gge4766" locked="0" c_rotation="270" c_width="7.874" c_height="6.1417" title="GND" c_shape="RECT" pasteexpansion="0" solderexpansion="0.2"><polygon  c_etype="pad_shell" points="4025.8209 3009.563 4025.8209 3017.437 4019.6792 3017.437 4019.6792 3009.563" layerid="1" stroke-width="0" /><circle c_etype="pad_hole" cx="4022.75" cy="3013.5" r="0" layerid="1" stroke-width="0"/></g><g c_partid="part_pad" c_etype="pinpart" c_origin="3983.374,3118.5" layerid="11" number="1" net="+5V" plated ="Y"  id="gge363" locked="0" c_rotation="180" c_width="7.874" c_height="7.874" title="+5V" c_shape="ELLIPSE" pasteexpansion="0" solderexpansion="0.2"><ellipse c_etype="pad_shell" cx="3983.374" cy="3118.5" rx="3.937" ry="3.937" layerid="11" stroke-width="0"/><polyline c_etype="pad_hole" points="3983.384 3118.5 3983.364 3118.5" layerid="11" stroke-width="4.3308"></polyline></g><g c_partid="part_pad" c_etype="pinpart" c_origin="4017.626,3118.5" layerid="11" number="2" net="U1_14" plated ="Y"  id="gge378" locked="0" c_rotation="180" c_width="7.874" c_height="7.874" title="U1_14" c_shape="ELLIPSE" pasteexpansion="0" solderexpansion="0.2"><ellipse c_etype="pad_shell" cx="4017.626" cy="3118.5" rx="3.937" ry="3.937" layerid="11" stroke-width="0"/><polyline c_etype="pad_hole" points="4017.636 3118.5 4017.616 3118.5" layerid="11" stroke-width="4.3308"></polyline></g><g c_partid="part_pad" c_etype="pinpart" c_origin="4017,3078.5" layerid="11" number="1" net="+5V" plated ="Y"  id="gge2048" locked="0" c_rotation="0" c_width="5.9055" c_height="15.748" title="+5V" c_shape="RECT" pasteexpansion="0" solderexpansion="0.2"><polygon  c_etype="pad_shell" points="4014.0472 3070.626 4019.9527 3070.626 4019.9527 3086.374 4014.0472 3086.374" layerid="11" stroke-width="0" /><polyline c_etype="pad_hole" points="4017 3083.4212 4017 3073.5788" layerid="11" stroke-width="4.3308"></polyline></g><g c_partid="part_pad" c_etype="pinpart" c_origin="4005.189,3097.791" layerid="11" number="2" net="J1_2" plated ="Y"  id="gge2063" locked="0" c_rotation="270" c_width="5.9055" c_height="15.748" title="J1_2" c_shape="RECT" pasteexpansion="0" solderexpansion="0.2"><polygon  c_etype="pad_shell" points="4013.063 3094.8385 4013.063 3100.744 3997.315 3100.744 3997.315 3094.8385" layerid="11" stroke-width="0" /><polyline c_etype="pad_hole" points="4000.2678 3097.7913 4010.1102 3097.7913" layerid="11" stroke-width="4.3308"></polyline></g><g c_partid="part_pad" c_etype="pinpart" c_origin="3993.378,3078.5" layerid="11" number="3" net="GND" plated ="Y"  id="gge2078" locked="0" c_rotation="0" c_width="5.9055" c_height="15.748" title="GND" c_shape="RECT" pasteexpansion="0" solderexpansion="0.2"><polygon  c_etype="pad_shell" points="3990.4252 3070.626 3996.3307 3070.626 3996.3307 3086.374 3990.4252 3086.374" layerid="11" stroke-width="0" /><polyline c_etype="pad_hole" points="3993.378 3083.4212 3993.378 3073.5788" layerid="11" stroke-width="4.3308"></polyline></g><g c_partid="part_pad" c_etype="pinpart" c_origin="4099,3061.5" layerid="11" number="1" net="U1_1" plated ="Y"  id="gge2237" locked="0" c_rotation="270" c_width="7.874" c_height="6.1417" title="U1_1" c_shape="OVAL" pasteexpansion="0" solderexpansion="0.2"><polyline  c_etype="pad_shell" points="4099 3060.6339 4099 3062.3662" layerid="11" stroke-width="6.1417" /><circle c_etype="pad_hole" cx="4099" cy="3061.5" r="1.8" layerid="11" stroke-width="0"/></g><g c_partid="part_pad" c_etype="pinpart" c_origin="4089,3061.5" layerid="11" number="2" net="DIN" plated ="Y"  id="gge2252" locked="0" c_rotation="270" c_width="7.874" c_height="6.1417" title="DIN" c_shape="OVAL" pasteexpansion="0" solderexpansion="0.2"><polyline  c_etype="pad_shell" points="4089 3060.6339 4089 3062.3662" layerid="11" stroke-width="6.1417" /><circle c_etype="pad_hole" cx="4089" cy="3061.5" r="1.8" layerid="11" stroke-width="0"/></g><g c_partid="part_pad" c_etype="pinpart" c_origin="4079,3061.5" layerid="11" number="3" net="BUTTON" plated ="Y"  id="gge2267" locked="0" c_rotation="270" c_width="7.874" c_height="6.1417" title="BUTTON" c_shape="OVAL" pasteexpansion="0" solderexpansion="0.2"><polyline  c_etype="pad_shell" points="4079 3060.6339 4079 3062.3662" layerid="11" stroke-width="6.1417" /><circle c_etype="pad_hole" cx="4079" cy="3061.5" r="1.8" layerid="11" stroke-width="0"/></g><g c_partid="part_pad" c_etype="pinpart" c_origin="4069,3061.5" layerid="11" number="4" net="U1_4" plated ="Y"  id="gge2282" locked="0" c_rotation="270" c_width="7.874" c_height="6.1417" title="U1_4" c_shape="OVAL" pasteexpansion="0" solderexpansion="0.2"><polyline  c_etype="pad_shell" points="4069 3060.6339 4069 3062.3662" layerid="11" stroke-width="6.1417" /><circle c_etype="pad_hole" cx="4069.0001" cy="3061.5" r="1.8" layerid="11" stroke-width="0"/></g><g c_partid="part_pad" c_etype="pinpart" c_origin="4059,3061.5" layerid="11" number="5" net="U1_5" plated ="Y"  id="gge2297" locked="0" c_rotation="270" c_width="7.874" c_height="6.1417" title="U1_5" c_shape="OVAL" pasteexpansion="0" solderexpansion="0.2"><polyline  c_etype="pad_shell" points="4059 3060.6339 4059 3062.3662" layerid="11" stroke-width="6.1417" /><circle c_etype="pad_hole" cx="4059" cy="3061.5" r="1.8" layerid="11" stroke-width="0"/></g><g c_partid="part_pad" c_etype="pinpart" c_origin="4049,3061.5" layerid="11" number="6" net="U1_6" plated ="Y"  id="gge2312" locked="0" c_rotation="270" c_width="7.874" c_height="6.1417" title="U1_6" c_shape="OVAL" pasteexpansion="0" solderexpansion="0.2"><polyline  c_etype="pad_shell" points="4049 3060.6339 4049 3062.3662" layerid="11" stroke-width="6.1417" /><circle c_etype="pad_hole" cx="4049" cy="3061.5" r="1.8" layerid="11" stroke-width="0"/></g><g c_partid="part_pad" c_etype="pinpart" c_origin="4039,3061.5" layerid="11" number="7" net="U1_7" plated ="Y"  id="gge2327" locked="0" c_rotation="270" c_width="7.874" c_height="6.1417" title="U1_7" c_shape="OVAL" pasteexpansion="0" solderexpansion="0.2"><polyline  c_etype="pad_shell" points="4039 3060.6339 4039 3062.3662" layerid="11" stroke-width="6.1417" /><circle c_etype="pad_hole" cx="4039" cy="3061.5" r="1.8" layerid="11" stroke-width="0"/></g><g c_partid="part_pad" c_etype="pinpart" c_origin="4039,3124.492" layerid="11" number="8" net="U1_8" plated ="Y"  id="gge2342" locked="0" c_rotation="270" c_width="7.874" c_height="6.1417" title="U1_8" c_shape="OVAL" pasteexpansion="0" solderexpansion="0.2"><polyline  c_etype="pad_shell" points="4039 3123.6259 4039 3125.3582" layerid="11" stroke-width="6.1417" /><circle c_etype="pad_hole" cx="4039" cy="3124.492" r="1.8" layerid="11" stroke-width="0"/></g><g c_partid="part_pad" c_etype="pinpart" c_origin="4049,3124.492" layerid="11" number="9" net="U1_9" plated ="Y"  id="gge2357" locked="0" c_rotation="270" c_width="7.874" c_height="6.1417" title="U1_9" c_shape="OVAL" pasteexpansion="0" solderexpansion="0.2"><polyline  c_etype="pad_shell" points="4049 3123.6259 4049 3125.3582" layerid="11" stroke-width="6.1417" /><circle c_etype="pad_hole" cx="4049" cy="3124.492" r="1.8" layerid="11" stroke-width="0"/></g><g c_partid="part_pad" c_etype="pinpart" c_origin="4059,3124.492" layerid="11" number="10" net="U1_10" plated ="Y"  id="gge2372" locked="0" c_rotation="270" c_width="7.874" c_height="6.1417" title="U1_10" c_shape="OVAL" pasteexpansion="0" solderexpansion="0.2"><polyline  c_etype="pad_shell" points="4059 3123.6259 4059 3125.3582" layerid="11" stroke-width="6.1417" /><circle c_etype="pad_hole" cx="4059" cy="3124.492" r="1.8" layerid="11" stroke-width="0"/></g><g c_partid="part_pad" c_etype="pinpart" c_origin="4069,3124.492" layerid="11" number="11" net="U1_11" plated ="Y"  id="gge2387" locked="0" c_rotation="270" c_width="7.874" c_height="6.1417" title="U1_11" c_shape="OVAL" pasteexpansion="0" solderexpansion="0.2"><polyline  c_etype="pad_shell" points="4069 3123.6259 4069 3125.3582" layerid="11" stroke-width="6.1417" /><circle c_etype="pad_hole" cx="4069.0001" cy="3124.492" r="1.8" layerid="11" stroke-width="0"/></g><g c_partid="part_pad" c_etype="pinpart" c_origin="4079,3124.492" layerid="11" number="12" net="3.3V" plated ="Y"  id="gge2402" locked="0" c_rotation="270" c_width="7.874" c_height="6.1417" title="3.3V" c_shape="OVAL" pasteexpansion="0" solderexpansion="0.2"><polyline  c_etype="pad_shell" points="4079 3123.6259 4079 3125.3582" layerid="11" stroke-width="6.1417" /><circle c_etype="pad_hole" cx="4079" cy="3124.492" r="1.8" layerid="11" stroke-width="0"/></g><g c_partid="part_pad" c_etype="pinpart" c_origin="4089,3124.492" layerid="11" number="13" net="GND" plated ="Y"  id="gge2417" locked="0" c_rotation="270" c_width="7.874" c_height="6.1417" title="GND" c_shape="OVAL" pasteexpansion="0" solderexpansion="0.2"><polyline  c_etype="pad_shell" points="4089 3123.6259 4089 3125.3582" layerid="11" stroke-width="6.1417" /><circle c_etype="pad_hole" cx="4089" cy="3124.492" r="1.8" layerid="11" stroke-width="0"/></g><g c_partid="part_pad" c_etype="pinpart" c_origin="4099,3124.492" layerid="11" number="14" net="U1_14" plated ="Y"  id="gge2432" locked="0" c_rotation="270" c_width="7.874" c_height="6.1417" title="U1_14" c_shape="OVAL" pasteexpansion="0" solderexpansion="0.2"><polyline  c_etype="pad_shell" points="4099 3123.6259 4099 3125.3582" layerid="11" stroke-width="6.1417" /><circle c_etype="pad_hole" cx="4099" cy="3124.492" r="1.8" layerid="11" stroke-width="0"/></g><g c_partid="part_hole" c_etype="pinpart" c_shapetype="group" c_origin="4046,3153.197" layerid="11" id="gge4925" locked="1" ><circle cx="4046" cy="3153.197" r="6.2992"  stroke-width="0" /></g><g c_partid="part_hole" c_etype="pinpart" c_shapetype="group" c_origin="3980.878,3040.402" layerid="11" id="gge5057" locked="0" ><circle cx="3980.878" cy="3040.402" r="6.2992"  stroke-width="0" /></g><g c_partid="part_hole" c_etype="pinpart" c_shapetype="group" c_origin="4111.122,3040.402" layerid="11" id="gge5087" locked="0" ><circle cx="4111.122" cy="3040.402" r="6.2992"  stroke-width="0" /></g><polyline points="4006.9596 3124.0118 4006.9596 3112.9882" stroke-width="1"  stroke-linecap="round" fill="none" layerid="3" net="" id="gge357" locked="0" /><polyline points="3990.2638 3124.0118 4010.7362 3124.0118 4010.7362 3112.9882 3990.2638 3112.9882 3990.2638 3124.0118" stroke-width="1"  stroke-linecap="round" fill="none" layerid="3" net="" id="gge360" locked="0" /><polyline points="4020.968 3061.284 4020.968 3096.717 3967.031 3096.717 3967.031 3061.284 4020.968 3061.284" stroke-width="0.3937"  stroke-linecap="round" fill="none" layerid="3" net="" id="gge2036" locked="0" /><polyline points="4109 3056 4109 3130.5 4029 3130.5 4029 3056 4109 3056" stroke-width="1"  stroke-linecap="round" fill="none" layerid="3" net="" id="gge2231" locked="0" /><polyline points="4115.5 3081.75 4115.5 3105.25 4094.5 3105.25 4094.5 3081.75 4115.5 3081.75" stroke-width="1"  stroke-linecap="round" fill="none" layerid="3" net="" id="gge2234" locked="0" /><g c_partid="part_pcbtext" c_etype="pinpart" c_origin="4059.5,3008.5" c_rotation="0" c_mirror="0" id="gge4622" locked="0" layerid="3" c_shapetype="group" ><path c_fontsize="5.9055" c_fontfamily="NotoSansCJKsc-DemiLight" c_text="GND" d="M 4060.93 3008.57 C 4061.41 3008.57 4061.81 3008.39 4062.05 3008.14 L 4062.05 3006.63 L 4060.86 3006.63 L 4060.86 3006.97 L 4061.66 3006.97 L 4061.66 3007.97 C 4061.51 3008.11 4061.24 3008.2 4060.97 3008.2 C 4060.17 3008.2 4059.72 3007.61 4059.72 3006.66 C 4059.72 3005.72 4060.2 3005.14 4060.97 3005.14 C 4061.34 3005.14 4061.59 3005.3 4061.77 3005.49 L 4062 3005.22 C 4061.79 3005.01 4061.46 3004.78 4060.95 3004.78 C 4059.99 3004.78 4059.3 3005.49 4059.3 3006.67 C 4059.3 3007.86 4059.97 3008.57 4060.93 3008.57 Z  M 4062.93 3008.5 L 4063.32 3008.5 L 4063.32 3006.49 C 4063.32 3006.11 4063.29 3005.74 4063.27 3005.38 L 4063.3 3005.38 L 4063.7 3006.13 L 4065.07 3008.5 L 4065.5 3008.5 L 4065.5 3004.84 L 4065.11 3004.84 L 4065.11 3006.82 C 4065.11 3007.2 4065.14 3007.59 4065.16 3007.96 L 4065.14 3007.96 L 4064.74 3007.21 L 4063.36 3004.84 L 4062.93 3004.84 Z  M 4066.52 3008.5 L 4067.44 3008.5 C 4068.55 3008.5 4069.13 3007.8 4069.13 3006.66 C 4069.13 3005.51 4068.55 3004.84 4067.42 3004.84 L 4066.52 3004.84 Z  M 4066.94 3008.16 L 4066.94 3005.18 L 4067.39 3005.18 C 4068.28 3005.18 4068.71 3005.72 4068.71 3006.66 C 4068.71 3007.59 4068.28 3008.16 4067.39 3008.16 Z "  stroke="none" stroke-width="0.8"  /></g><g c_partid="part_pcbtext" c_etype="pinpart" c_origin="4051.5,3024.5" c_rotation="0" c_mirror="0" id="gge4634" locked="0" layerid="3" c_shapetype="group" ><path c_fontsize="5.9055" c_fontfamily="NotoSansCJKsc-DemiLight" c_text="VCC" d="M 4052.68 3024 L 4053.16 3024 L 4054.33 3020.34 L 4053.91 3020.34 L 4053.3 3022.36 C 4053.17 3022.8 4053.08 3023.14 4052.94 3023.57 L 4052.92 3023.57 C 4052.78 3023.14 4052.69 3022.8 4052.56 3022.36 L 4051.95 3020.34 L 4051.51 3020.34 Z  M 4056.15 3024.07 C 4056.63 3024.07 4056.98 3023.88 4057.27 3023.54 L 4057.04 3023.28 C 4056.8 3023.55 4056.53 3023.7 4056.17 3023.7 C 4055.45 3023.7 4055 3023.11 4055 3022.16 C 4055 3021.22 4055.47 3020.64 4056.19 3020.64 C 4056.51 3020.64 4056.76 3020.78 4056.95 3020.99 L 4057.18 3020.72 C 4056.97 3020.49 4056.63 3020.28 4056.18 3020.28 C 4055.26 3020.28 4054.58 3020.99 4054.58 3022.17 C 4054.58 3023.36 4055.25 3024.07 4056.15 3024.07 Z  M 4059.17 3024.07 C 4059.64 3024.07 4060 3023.88 4060.29 3023.54 L 4060.06 3023.28 C 4059.82 3023.55 4059.55 3023.7 4059.19 3023.7 C 4058.47 3023.7 4058.02 3023.11 4058.02 3022.16 C 4058.02 3021.22 4058.49 3020.64 4059.21 3020.64 C 4059.53 3020.64 4059.78 3020.78 4059.97 3020.99 L 4060.2 3020.72 C 4059.99 3020.49 4059.64 3020.28 4059.2 3020.28 C 4058.28 3020.28 4057.6 3020.99 4057.6 3022.17 C 4057.6 3023.36 4058.27 3024.07 4059.17 3024.07 Z "  stroke="none" stroke-width="0.8"  /></g><g c_partid="part_pcbtext" c_etype="pinpart" c_origin="4070.5,3024" c_rotation="0" c_mirror="0" id="gge4547" locked="0" layerid="3" c_shapetype="group" ><path c_fontsize="5.9055" c_fontfamily="NotoSansCJKsc-DemiLight" c_text="Din" d="M 4070.51 3024 L 4071.43 3024 C 4072.53 3024 4073.12 3023.3 4073.12 3022.16 C 4073.12 3021.01 4072.53 3020.34 4071.41 3020.34 L 4070.51 3020.34 Z  M 4070.93 3023.66 L 4070.93 3020.68 L 4071.38 3020.68 C 4072.26 3020.68 4072.7 3021.22 4072.7 3022.16 C 4072.7 3023.09 4072.26 3023.66 4071.38 3023.66 Z  M 4073.89 3024 L 4074.3 3024 L 4074.3 3021.3 L 4073.89 3021.3 Z  M 4074.09 3020.72 C 4074.26 3020.72 4074.38 3020.61 4074.38 3020.43 C 4074.38 3020.27 4074.26 3020.16 4074.09 3020.16 C 4073.93 3020.16 4073.81 3020.27 4073.81 3020.43 C 4073.81 3020.61 4073.93 3020.72 4074.09 3020.72 Z  M 4075.23 3024 L 4075.64 3024 L 4075.64 3022.03 C 4075.92 3021.74 4076.12 3021.59 4076.41 3021.59 C 4076.78 3021.59 4076.94 3021.82 4076.94 3022.34 L 4076.94 3024 L 4077.35 3024 L 4077.35 3022.28 C 4077.35 3021.59 4077.09 3021.23 4076.53 3021.23 C 4076.16 3021.23 4075.88 3021.44 4075.62 3021.7 L 4075.6 3021.7 L 4075.56 3021.3 L 4075.23 3021.3 Z "  stroke="none" stroke-width="0.8"  /></g><g c_partid="part_pcbtext" c_etype="pinpart" c_origin="4059.5,3035.5" c_rotation="0" c_mirror="0" id="gge4649" locked="0" layerid="3" c_shapetype="group" ><path c_fontsize="5.9055" c_fontfamily="NotoSansCJKsc-DemiLight" c_text="LED" d="M 4060.01 3035 L 4062.05 3035 L 4062.05 3034.65 L 4060.43 3034.65 L 4060.43 3031.34 L 4060.01 3031.34 Z  M 4062.69 3035 L 4064.83 3035 L 4064.83 3034.65 L 4063.11 3034.65 L 4063.11 3033.24 L 4064.51 3033.24 L 4064.51 3032.89 L 4063.11 3032.89 L 4063.11 3031.69 L 4064.77 3031.69 L 4064.77 3031.34 L 4062.69 3031.34 Z  M 4065.61 3035 L 4066.53 3035 C 4067.63 3035 4068.22 3034.3 4068.22 3033.16 C 4068.22 3032.01 4067.63 3031.34 4066.51 3031.34 L 4065.61 3031.34 Z  M 4066.03 3034.66 L 4066.03 3031.68 L 4066.47 3031.68 C 4067.36 3031.68 4067.8 3032.22 4067.8 3033.16 C 4067.8 3034.09 4067.36 3034.66 4066.47 3034.66 Z "  stroke="none" stroke-width="0.8"  /></g><g c_partid="part_pcbtext" c_etype="pinpart" c_origin="4019.75,3034.5" c_rotation="0" c_mirror="0" id="gge4787" locked="0" layerid="3" c_shapetype="group" ><path c_fontsize="5.9055" c_fontfamily="NotoSansCJKsc-DemiLight" c_text="Button" d="M 4020.26 3034.5 L 4021.4 3034.5 C 4022.22 3034.5 4022.78 3034.14 4022.78 3033.43 C 4022.78 3032.93 4022.47 3032.64 4022.03 3032.55 L 4022.03 3032.53 C 4022.38 3032.41 4022.57 3032.1 4022.57 3031.74 C 4022.57 3031.1 4022.07 3030.84 4021.32 3030.84 L 4020.26 3030.84 Z  M 4020.68 3032.41 L 4020.68 3031.17 L 4021.26 3031.17 C 4021.86 3031.17 4022.16 3031.34 4022.16 3031.78 C 4022.16 3032.17 4021.89 3032.41 4021.24 3032.41 Z  M 4020.68 3034.17 L 4020.68 3032.73 L 4021.34 3032.73 C 4022 3032.73 4022.38 3032.95 4022.38 3033.41 C 4022.38 3033.93 4021.99 3034.17 4021.34 3034.17 Z  M 4024.27 3034.57 C 4024.64 3034.57 4024.91 3034.36 4025.17 3034.07 L 4025.18 3034.07 L 4025.22 3034.5 L 4025.55 3034.5 L 4025.55 3031.8 L 4025.15 3031.8 L 4025.15 3033.74 C 4024.88 3034.07 4024.67 3034.21 4024.39 3034.21 C 4024.01 3034.21 4023.85 3033.98 4023.85 3033.47 L 4023.85 3031.8 L 4023.45 3031.8 L 4023.45 3033.51 C 4023.45 3034.2 4023.7 3034.57 4024.27 3034.57 Z  M 4027.32 3034.57 C 4027.47 3034.57 4027.65 3034.51 4027.8 3034.47 L 4027.72 3034.16 C 4027.63 3034.2 4027.5 3034.23 4027.4 3034.23 C 4027.08 3034.23 4026.98 3034.03 4026.98 3033.7 L 4026.98 3032.14 L 4027.72 3032.14 L 4027.72 3031.8 L 4026.98 3031.8 L 4026.98 3031.03 L 4026.64 3031.03 L 4026.59 3031.8 L 4026.16 3031.82 L 4026.16 3032.14 L 4026.57 3032.14 L 4026.57 3033.68 C 4026.57 3034.21 4026.75 3034.57 4027.32 3034.57 Z  M 4029.05 3034.57 C 4029.2 3034.57 4029.38 3034.51 4029.53 3034.47 L 4029.45 3034.16 C 4029.36 3034.2 4029.24 3034.23 4029.14 3034.23 C 4028.81 3034.23 4028.71 3034.03 4028.71 3033.7 L 4028.71 3032.14 L 4029.45 3032.14 L 4029.45 3031.8 L 4028.71 3031.8 L 4028.71 3031.03 L 4028.37 3031.03 L 4028.32 3031.8 L 4027.89 3031.82 L 4027.89 3032.14 L 4028.31 3032.14 L 4028.31 3033.68 C 4028.31 3034.21 4028.49 3034.57 4029.05 3034.57 Z  M 4031.03 3034.57 C 4031.69 3034.57 4032.28 3034.05 4032.28 3033.15 C 4032.28 3032.25 4031.69 3031.73 4031.03 3031.73 C 4030.37 3031.73 4029.79 3032.25 4029.79 3033.15 C 4029.79 3034.05 4030.37 3034.57 4031.03 3034.57 Z  M 4031.03 3034.22 C 4030.55 3034.22 4030.21 3033.8 4030.21 3033.15 C 4030.21 3032.51 4030.55 3032.07 4031.03 3032.07 C 4031.51 3032.07 4031.86 3032.51 4031.86 3033.15 C 4031.86 3033.8 4031.51 3034.22 4031.03 3034.22 Z  M 4033.01 3034.5 L 4033.42 3034.5 L 4033.42 3032.53 C 4033.7 3032.24 4033.9 3032.09 4034.19 3032.09 C 4034.56 3032.09 4034.72 3032.32 4034.72 3032.84 L 4034.72 3034.5 L 4035.13 3034.5 L 4035.13 3032.78 C 4035.13 3032.09 4034.87 3031.73 4034.31 3031.73 C 4033.94 3031.73 4033.66 3031.94 4033.4 3032.2 L 4033.38 3032.2 L 4033.34 3031.8 L 4033.01 3031.8 Z "  stroke="none" stroke-width="0.8"  /></g><g c_partid="part_pcbtext" c_etype="pinpart" c_origin="4016.75,3024.5" c_rotation="0" c_mirror="0" id="gge4799" locked="0" layerid="3" c_shapetype="group" ><path c_fontsize="5.9055" c_fontfamily="NotoSansCJKsc-DemiLight" c_text="GND" d="M 4018.18 3024.07 C 4018.66 3024.07 4019.06 3023.89 4019.3 3023.64 L 4019.3 3022.13 L 4018.11 3022.13 L 4018.11 3022.47 L 4018.91 3022.47 L 4018.91 3023.47 C 4018.76 3023.61 4018.49 3023.7 4018.22 3023.7 C 4017.42 3023.7 4016.97 3023.11 4016.97 3022.16 C 4016.97 3021.22 4017.45 3020.64 4018.22 3020.64 C 4018.59 3020.64 4018.84 3020.8 4019.02 3020.99 L 4019.25 3020.72 C 4019.04 3020.51 4018.71 3020.28 4018.2 3020.28 C 4017.24 3020.28 4016.55 3020.99 4016.55 3022.17 C 4016.55 3023.36 4017.22 3024.07 4018.18 3024.07 Z  M 4020.18 3024 L 4020.57 3024 L 4020.57 3021.99 C 4020.57 3021.61 4020.54 3021.24 4020.52 3020.88 L 4020.55 3020.88 L 4020.95 3021.63 L 4022.32 3024 L 4022.75 3024 L 4022.75 3020.34 L 4022.36 3020.34 L 4022.36 3022.32 C 4022.36 3022.7 4022.39 3023.09 4022.41 3023.46 L 4022.39 3023.46 L 4021.99 3022.71 L 4020.61 3020.34 L 4020.18 3020.34 Z  M 4023.77 3024 L 4024.69 3024 C 4025.8 3024 4026.38 3023.3 4026.38 3022.16 C 4026.38 3021.01 4025.8 3020.34 4024.67 3020.34 L 4023.77 3020.34 Z  M 4024.19 3023.66 L 4024.19 3020.68 L 4024.64 3020.68 C 4025.53 3020.68 4025.96 3021.22 4025.96 3022.16 C 4025.96 3023.09 4025.53 3023.66 4024.64 3023.66 Z "  stroke="none" stroke-width="0.8"  /></g><g c_partid="part_pcbtext" c_etype="pinpart" c_origin="4028.25,3024.5" c_rotation="0" c_mirror="0" id="gge4811" locked="0" layerid="3" c_shapetype="group" ><path c_fontsize="5.9055" c_fontfamily="NotoSansCJKsc-DemiLight" c_text="SIG" d="M 4029.26 3024.07 C 4030.01 3024.07 4030.49 3023.61 4030.49 3023.04 C 4030.49 3022.49 4030.15 3022.24 4029.73 3022.06 L 4029.2 3021.84 C 4028.92 3021.72 4028.59 3021.57 4028.59 3021.2 C 4028.59 3020.86 4028.88 3020.64 4029.3 3020.64 C 4029.65 3020.64 4029.92 3020.78 4030.14 3020.99 L 4030.36 3020.72 C 4030.11 3020.46 4029.74 3020.28 4029.3 3020.28 C 4028.65 3020.28 4028.17 3020.68 4028.17 3021.23 C 4028.17 3021.76 4028.57 3022.01 4028.91 3022.16 L 4029.45 3022.39 C 4029.8 3022.55 4030.07 3022.68 4030.07 3023.07 C 4030.07 3023.45 4029.76 3023.7 4029.26 3023.7 C 4028.88 3023.7 4028.51 3023.52 4028.24 3023.24 L 4027.99 3023.52 C 4028.3 3023.86 4028.74 3024.07 4029.26 3024.07 Z  M 4031.22 3024 L 4031.64 3024 L 4031.64 3020.34 L 4031.22 3020.34 Z  M 4034.07 3024.07 C 4034.56 3024.07 4034.95 3023.89 4035.19 3023.64 L 4035.19 3022.13 L 4034.01 3022.13 L 4034.01 3022.47 L 4034.8 3022.47 L 4034.8 3023.47 C 4034.66 3023.61 4034.38 3023.7 4034.11 3023.7 C 4033.32 3023.7 4032.86 3023.11 4032.86 3022.16 C 4032.86 3021.22 4033.35 3020.64 4034.11 3020.64 C 4034.49 3020.64 4034.73 3020.8 4034.91 3020.99 L 4035.14 3020.72 C 4034.93 3020.51 4034.61 3020.28 4034.1 3020.28 C 4033.13 3020.28 4032.44 3020.99 4032.44 3022.17 C 4032.44 3023.36 4033.11 3024.07 4034.07 3024.07 Z "  stroke="none" stroke-width="0.8"  /></g><g c_partid="part_pcbtext" c_etype="" c_origin="4000.5,3104.5" c_rotation="0" c_mirror="0" id="gge345" locked="0" layerid="3" c_shapetype="group" display="none"><path c_fontsize="4.5" c_fontfamily="" c_text="1N5817" d="M 4000.5 3100.78 L 4000.91 3100.57 L 4001.52 3099.96 L 4001.52 3104.25 M 4002.87 3099.96 L 4002.87 3104.25 M 4002.87 3099.96 L 4005.74 3104.25 M 4005.74 3099.96 L 4005.74 3104.25 M 4009.54 3099.96 L 4007.5 3099.96 L 4007.29 3101.8 L 4007.5 3101.6 L 4008.11 3101.39 L 4008.72 3101.39 L 4009.34 3101.6 L 4009.75 3102 L 4009.95 3102.62 L 4009.95 3103.03 L 4009.75 3103.64 L 4009.34 3104.05 L 4008.72 3104.25 L 4008.11 3104.25 L 4007.5 3104.05 L 4007.29 3103.85 L 4007.09 3103.44 M 4012.32 3099.96 L 4011.71 3100.16 L 4011.5 3100.57 L 4011.5 3100.98 L 4011.71 3101.39 L 4012.12 3101.6 L 4012.94 3101.8 L 4013.55 3102 L 4013.96 3102.41 L 4014.16 3102.82 L 4014.16 3103.44 L 4013.96 3103.85 L 4013.75 3104.05 L 4013.14 3104.25 L 4012.32 3104.25 L 4011.71 3104.05 L 4011.5 3103.85 L 4011.3 3103.44 L 4011.3 3102.82 L 4011.5 3102.41 L 4011.91 3102 L 4012.53 3101.8 L 4013.35 3101.6 L 4013.75 3101.39 L 4013.96 3100.98 L 4013.96 3100.57 L 4013.75 3100.16 L 4013.14 3099.96 L 4012.32 3099.96 M 4015.51 3100.78 L 4015.92 3100.57 L 4016.54 3099.96 L 4016.54 3104.25 M 4020.75 3099.96 L 4018.7 3104.25 M 4017.89 3099.96 L 4020.75 3099.96" fill="none"  stroke-width="0.6" c_note="note_name" /></g><g c_partid="part_pcbtext" c_etype="" c_origin="3992.5,3109.5" c_rotation="0" c_mirror="0" id="gge351" locked="0" layerid="3" c_shapetype="group" ><path c_fontsize="4.5" c_fontfamily="" c_text="DIODE" d="M 3992.5 3104.9591 L 3992.5 3109.2591 M 3992.5 3104.9591 L 3993.93 3104.9591 L 3994.55 3105.1591 L 3994.95 3105.5691 L 3995.16 3105.9791 L 3995.36 3106.5991 L 3995.36 3107.6191 L 3995.16 3108.2291 L 3994.95 3108.6391 L 3994.55 3109.0491 L 3993.93 3109.2591 L 3992.5 3109.2591 M 3996.71 3104.9591 L 3996.71 3109.2591 M 3999.29 3104.9591 L 3998.88 3105.1591 L 3998.47 3105.5691 L 3998.27 3105.9791 L 3998.06 3106.5991 L 3998.06 3107.6191 L 3998.27 3108.2291 L 3998.47 3108.6391 L 3998.88 3109.0491 L 3999.29 3109.2591 L 4000.11 3109.2591 L 4000.52 3109.0491 L 4000.93 3108.6391 L 4001.13 3108.2291 L 4001.34 3107.6191 L 4001.34 3106.5991 L 4001.13 3105.9791 L 4000.93 3105.5691 L 4000.52 3105.1591 L 4000.11 3104.9591 L 3999.29 3104.9591 M 4002.69 3104.9591 L 4002.69 3109.2591 M 4002.69 3104.9591 L 4004.12 3104.9591 L 4004.73 3105.1591 L 4005.14 3105.5691 L 4005.35 3105.9791 L 4005.55 3106.5991 L 4005.55 3107.6191 L 4005.35 3108.2291 L 4005.14 3108.6391 L 4004.73 3109.0491 L 4004.12 3109.2591 L 4002.69 3109.2591 M 4006.9 3104.9591 L 4006.9 3109.2591 M 4006.9 3104.9591 L 4009.56 3104.9591 M 4006.9 3107.0091 L 4008.54 3107.0091 M 4006.9 3109.2591 L 4009.56 3109.2591" fill="none"  stroke-width="0.6" c_note="note_pre" /></g><g c_partid="part_pcbtext" c_etype="" c_origin="4037.999,3080.5" c_rotation="270" c_mirror="0" id="gge399" locked="0" layerid="3" c_shapetype="group" display="none"><path c_fontsize="4.5" c_fontfamily="" c_text="DC plug" d="M 4042.539 3080.501 L 4038.249 3080.501 M 4042.539 3080.501 L 4042.539 3081.931 L 4042.339 3082.541 L 4041.929 3082.951 L 4041.519 3083.161 L 4040.899 3083.361 L 4039.879 3083.361 L 4039.269 3083.161 L 4038.859 3082.951 L 4038.449 3082.541 L 4038.249 3081.931 L 4038.249 3080.501 M 4041.519 3087.781 L 4041.929 3087.581 L 4042.339 3087.171 L 4042.539 3086.761 L 4042.539 3085.941 L 4042.339 3085.531 L 4041.929 3085.121 L 4041.519 3084.921 L 4040.899 3084.711 L 4039.879 3084.711 L 4039.269 3084.921 L 4038.859 3085.121 L 4038.449 3085.531 L 4038.249 3085.941 L 4038.249 3086.761 L 4038.449 3087.171 L 4038.859 3087.581 L 4039.269 3087.781 M 4041.109 3092.281 L 4036.809 3092.281 M 4040.499 3092.281 L 4040.899 3092.691 L 4041.109 3093.101 L 4041.109 3093.711 L 4040.899 3094.121 L 4040.499 3094.531 L 4039.879 3094.741 L 4039.469 3094.741 L 4038.859 3094.531 L 4038.449 3094.121 L 4038.249 3093.711 L 4038.249 3093.101 L 4038.449 3092.691 L 4038.859 3092.281 M 4042.539 3096.091 L 4038.249 3096.091 M 4041.109 3097.441 L 4039.059 3097.441 L 4038.449 3097.641 L 4038.249 3098.051 L 4038.249 3098.661 L 4038.449 3099.071 L 4039.059 3099.691 M 4041.109 3099.691 L 4038.249 3099.691 M 4041.109 3103.491 L 4037.839 3103.491 L 4037.219 3103.291 L 4037.019 3103.081 L 4036.809 3102.671 L 4036.809 3102.061 L 4037.019 3101.651 M 4040.499 3103.491 L 4040.899 3103.081 L 4041.109 3102.671 L 4041.109 3102.061 L 4040.899 3101.651 L 4040.499 3101.241 L 4039.879 3101.041 L 4039.469 3101.041 L 4038.859 3101.241 L 4038.449 3101.651 L 4038.249 3102.061 L 4038.249 3102.671 L 4038.449 3103.081 L 4038.859 3103.491" fill="none"  stroke-width="0.6" c_note="note_name" /></g><g c_partid="part_pcbtext" c_etype="" c_origin="3976,3069.5" c_rotation="270" c_mirror="0" id="gge405" locked="0" layerid="3" c_shapetype="group" ><path c_fontsize="4.5" c_fontfamily="" c_text="POWER" d="M 3980.54 3069.5 L 3976.25 3069.5 M 3980.54 3069.5 L 3980.54 3071.34 L 3980.34 3071.95 L 3980.13 3072.16 L 3979.72 3072.36 L 3979.11 3072.36 L 3978.7 3072.16 L 3978.5 3071.95 L 3978.29 3071.34 L 3978.29 3069.5 M 3980.54 3074.94 L 3980.34 3074.53 L 3979.93 3074.12 L 3979.52 3073.92 L 3978.9 3073.71 L 3977.88 3073.71 L 3977.27 3073.92 L 3976.86 3074.12 L 3976.45 3074.53 L 3976.25 3074.94 L 3976.25 3075.76 L 3976.45 3076.17 L 3976.86 3076.58 L 3977.27 3076.78 L 3977.88 3076.99 L 3978.9 3076.99 L 3979.52 3076.78 L 3979.93 3076.58 L 3980.34 3076.17 L 3980.54 3075.76 L 3980.54 3074.94 M 3980.54 3078.34 L 3976.25 3079.36 M 3980.54 3080.38 L 3976.25 3079.36 M 3980.54 3080.38 L 3976.25 3081.4 M 3980.54 3082.43 L 3976.25 3081.4 M 3980.54 3083.78 L 3976.25 3083.78 M 3980.54 3083.78 L 3980.54 3086.44 M 3978.5 3083.78 L 3978.5 3085.41 M 3976.25 3083.78 L 3976.25 3086.44 M 3980.54 3087.79 L 3976.25 3087.79 M 3980.54 3087.79 L 3980.54 3089.63 L 3980.34 3090.24 L 3980.13 3090.45 L 3979.72 3090.65 L 3979.31 3090.65 L 3978.9 3090.45 L 3978.7 3090.24 L 3978.5 3089.63 L 3978.5 3087.79 M 3978.5 3089.22 L 3976.25 3090.65" fill="none"  stroke-width="0.6" c_note="note_pre" /></g><g c_partid="part_pcbtext" c_etype="" c_origin="4125,3092.5" c_rotation="270" c_mirror="0" id="gge474" locked="0" layerid="3" c_shapetype="group" display="none"><path c_fontsize="4.5" c_fontfamily="" c_text="ESP32C3 XIAO" d="M 4129.54 3092.5 L 4125.25 3092.5 M 4129.54 3092.5 L 4129.54 3095.16 M 4127.5 3092.5 L 4127.5 3094.14 M 4125.25 3092.5 L 4125.25 3095.16 M 4128.93 3099.37 L 4129.34 3098.96 L 4129.54 3098.35 L 4129.54 3097.53 L 4129.34 3096.92 L 4128.93 3096.51 L 4128.52 3096.51 L 4128.11 3096.71 L 4127.9 3096.92 L 4127.7 3097.33 L 4127.29 3098.55 L 4127.09 3098.96 L 4126.88 3099.17 L 4126.47 3099.37 L 4125.86 3099.37 L 4125.45 3098.96 L 4125.25 3098.35 L 4125.25 3097.53 L 4125.45 3096.92 L 4125.86 3096.51 M 4129.54 3100.72 L 4125.25 3100.72 M 4129.54 3100.72 L 4129.54 3102.56 L 4129.34 3103.18 L 4129.13 3103.38 L 4128.72 3103.59 L 4128.11 3103.59 L 4127.7 3103.38 L 4127.5 3103.18 L 4127.29 3102.56 L 4127.29 3100.72 M 4129.54 3105.35 L 4129.54 3107.6 L 4127.9 3106.37 L 4127.9 3106.98 L 4127.7 3107.39 L 4127.5 3107.6 L 4126.88 3107.8 L 4126.47 3107.8 L 4125.86 3107.6 L 4125.45 3107.19 L 4125.25 3106.57 L 4125.25 3105.96 L 4125.45 3105.35 L 4125.65 3105.14 L 4126.06 3104.94 M 4128.52 3109.35 L 4128.72 3109.35 L 4129.13 3109.56 L 4129.34 3109.76 L 4129.54 3110.17 L 4129.54 3110.99 L 4129.34 3111.4 L 4129.13 3111.6 L 4128.72 3111.81 L 4128.31 3111.81 L 4127.9 3111.6 L 4127.29 3111.2 L 4125.25 3109.15 L 4125.25 3112.01 M 4128.52 3116.43 L 4128.93 3116.23 L 4129.34 3115.82 L 4129.54 3115.41 L 4129.54 3114.59 L 4129.34 3114.18 L 4128.93 3113.77 L 4128.52 3113.57 L 4127.9 3113.36 L 4126.88 3113.36 L 4126.27 3113.57 L 4125.86 3113.77 L 4125.45 3114.18 L 4125.25 3114.59 L 4125.25 3115.41 L 4125.45 3115.82 L 4125.86 3116.23 L 4126.27 3116.43 M 4129.54 3118.19 L 4129.54 3120.44 L 4127.9 3119.21 L 4127.9 3119.83 L 4127.7 3120.24 L 4127.5 3120.44 L 4126.88 3120.65 L 4126.47 3120.65 L 4125.86 3120.44 L 4125.45 3120.03 L 4125.25 3119.42 L 4125.25 3118.8 L 4125.45 3118.19 L 4125.65 3117.99 L 4126.06 3117.78 M 4129.54 3125.15 L 4125.25 3128.01 M 4129.54 3128.01 L 4125.25 3125.15 M 4129.54 3129.36 L 4125.25 3129.36 M 4129.54 3132.35 L 4125.25 3130.71 M 4129.54 3132.35 L 4125.25 3133.98 M 4126.68 3131.32 L 4126.68 3133.37 M 4129.54 3136.56 L 4129.34 3136.15 L 4128.93 3135.74 L 4128.52 3135.54 L 4127.9 3135.33 L 4126.88 3135.33 L 4126.27 3135.54 L 4125.86 3135.74 L 4125.45 3136.15 L 4125.25 3136.56 L 4125.25 3137.38 L 4125.45 3137.79 L 4125.86 3138.2 L 4126.27 3138.4 L 4126.88 3138.6 L 4127.9 3138.6 L 4128.52 3138.4 L 4128.93 3138.2 L 4129.34 3137.79 L 4129.54 3137.38 L 4129.54 3136.56" fill="none"  stroke-width="0.6" c_note="note_name" /></g><g c_partid="part_pcbtext" c_etype="" c_origin="4076,3085.5" c_rotation="270" c_mirror="0" id="gge480" locked="0" layerid="3" c_shapetype="group" ><path c_fontsize="4.5" c_fontfamily="" c_text="XIAO" d="M 4080.54 3085.5 L 4076.25 3088.36 M 4080.54 3088.36 L 4076.25 3085.5 M 4080.54 3089.71 L 4076.25 3089.71 M 4080.54 3092.7 L 4076.25 3091.06 M 4080.54 3092.7 L 4076.25 3094.34 M 4077.68 3091.68 L 4077.68 3093.72 M 4080.54 3096.91 L 4080.34 3096.5 L 4079.93 3096.1 L 4079.52 3095.89 L 4078.9 3095.69 L 4077.88 3095.69 L 4077.27 3095.89 L 4076.86 3096.1 L 4076.45 3096.5 L 4076.25 3096.91 L 4076.25 3097.73 L 4076.45 3098.14 L 4076.86 3098.55 L 4077.27 3098.75 L 4077.88 3098.96 L 4078.9 3098.96 L 4079.52 3098.75 L 4079.93 3098.55 L 4080.34 3098.14 L 4080.54 3097.73 L 4080.54 3096.91" fill="none"  stroke-width="0.6" c_note="note_pre" /></g><rect x="4044.25" y="3002" width="38.75" height="26.25" stroke-width="0.3937" fill="none" c_etype="" transform="" layerid="3" id="gge4637" locked="0" c_shapetype="line" net="" stroke-linejoin="round"/><rect x="4012.25" y="3002" width="29" height="26.25" stroke-width="0.3937" fill="none" c_etype="" transform="" layerid="3" id="gge4775" locked="0" c_shapetype="line" net="" stroke-linejoin="round"/><circle cx="4046" cy="3078" r="90.551" stroke-width="1" fill="none" layerid="10" id="gge2714" locked="0"  net="" transformarc="circle_gge2717,circle_gge2720"/></svg>